<?xml version="1.0" encoding="UTF-8" standalone="no"?>
<!DOCTYPE svg PUBLIC "-//W3C//DTD SVG 1.1//EN" "http://www.w3.org/Graphics/SVG/1.1/DTD/svg11.dtd">
<!-- Created with Vectornator (http://vectornator.io/) -->
<svg height="100%" stroke-miterlimit="10" style="fill-rule:nonzero;clip-rule:evenodd;stroke-linecap:round;stroke-linejoin:round;" version="1.1" viewBox="0 0 1000 1000" width="100%" xml:space="preserve" xmlns="http://www.w3.org/2000/svg" xmlns:vectornator="http://vectornator.io" xmlns:xlink="http://www.w3.org/1999/xlink">
<g id="Layer-1" opacity="0.5" vectornator:layerName="Layer 1" visibility="hidden">
<use opacity="1" transform="matrix(0.25 0 0 0.25 0 50)" vectornator:layerName="Image 1" xlink:href="#Image"/>
</g>
<g id="Layer-4" vectornator:layerName="Layer 4">
<path d="M718.859 349.552L728.302 334.814L756.976 324.849L771.796 308.292C771.796 308.292 788.992 291.743 760.424 285.764C760.424 285.764 748.379 281.921 751.109 258.323L757.61 240.805L739.876 228.928L736.146 206.876" fill="none" opacity="1" stroke="#000409" stroke-dasharray="4.0" stroke-linecap="butt" stroke-linejoin="round" stroke-width="0.5" vectornator:layerName="Curve 1"/>
<path d="M765.749 286.945C765.749 286.945 781.026 292.067 795.49 273.784L798.544 272.57L799.912 259.478C799.912 259.478 803.358 247.254 818.468 244.565L838.44 243.18C838.44 243.18 843.739 244.239 848.453 234.219L852.02 227.747L855.048 221.069" fill="none" opacity="1" stroke="#000409" stroke-dasharray="4.0" stroke-linecap="butt" stroke-linejoin="round" stroke-width="0.5" vectornator:layerName="Curve 2"/>
<path d="M798.235 272.295C798.235 272.295 805.737 274.048 807.915 273.045C810.093 272.042 813.881 273.876 817.219 275.995C820.557 278.114 825.235 273.975 830.813 276.285C836.391 278.596 841.711 282.493 844.559 286.283L844.573 291.32L855.112 303.565L857.074 306.476L874.763 305.249C874.763 305.249 874.661 310.77 881.409 307.754C888.158 304.737 890.509 302.692 890.509 302.692" fill="none" opacity="1" stroke="#000409" stroke-dasharray="4.0" stroke-linecap="butt" stroke-linejoin="round" stroke-width="0.5" vectornator:layerName="Curve 3"/>
<path d="M552.811 298.972L555.912 278.768C555.912 278.768 573.194 271.81 575.542 248.523C575.542 248.523 584.44 233.592 608.487 223.772L633.07 214.076L643.227 218.357L650.642 214.851C650.642 214.851 660.997 231.149 676.463 233.209L698.359 232.667L703.57 235.614" fill="none" opacity="1" stroke="#000409" stroke-dasharray="4.0" stroke-linecap="butt" stroke-linejoin="round" stroke-width="0.5" vectornator:layerName="Curve 4"/>
<path d="M494.994 406.491C494.994 406.491 506.13 403.15 517.525 399.129C528.92 395.107 524.387 388.043 539.462 388.842C554.536 389.64 557.933 395.281 578.456 395.547C598.979 395.813 607.811 393.805 617.736 391.434C627.661 389.063 639.824 391.021 639.824 391.021L656.365 387.38L682.903 394.776" fill="none" opacity="1" stroke="#000409" stroke-dasharray="4.0" stroke-linecap="butt" stroke-linejoin="round" stroke-width="0.5" vectornator:layerName="Curve 5"/>
<path d="M804.521 370.226C804.521 370.226 799.509 377.439 797.317 380.521C795.126 383.603 801.189 386.298 797.209 387.793C793.229 389.288 786.99 391.312 787.268 396.132C787.545 400.951 790.216 401.069 790.426 405.477C790.636 409.885 792.173 412.606 796.59 415.569C801.007 418.533 800.587 414.712 802.284 423.495C803.981 432.278 800.354 437.896 807.038 442.077C813.722 446.258 817.829 449.549 820.238 447.626C822.648 445.703 823.249 439.912 830.663 442.456L835.243 436.931L839.459 434.605" fill="none" opacity="1" stroke="#000409" stroke-dasharray="4.0" stroke-linecap="butt" stroke-linejoin="round" stroke-width="0.5" vectornator:layerName="Curve 6"/>
<path d="M745.905 440.219L754.173 439.626C754.173 439.626 769.726 445.742 770.485 438.184C770.485 438.184 765.682 434.901 779.985 424.718C779.985 424.718 777.936 419.729 783.485 417.186C789.035 414.642 791.911 413.281 794.455 413.391" fill="none" opacity="1" stroke="#000409" stroke-dasharray="4.0" stroke-linecap="butt" stroke-linejoin="round" stroke-width="0.5" vectornator:layerName="Curve 7"/>
<path d="M762.996 481.331C762.996 481.331 758.799 478.071 754.41 492.103C750.02 506.134 748.256 501.982 741.022 503.197C733.788 504.413 726.079 501.651 717.159 512.118C708.24 522.585 714.187 521.718 711.931 532.338C709.676 542.958 713.155 543.282 701.022 548.054L688.382 555.825C688.382 555.825 686.607 554.906 679.611 566.658C672.614 578.411 666.685 596.588 666.685 596.588C666.685 596.588 662.941 608.576 661.97 610.403C661 612.229 665.628 614.581 662.898 621.176C660.168 627.772 654.068 634.995 651.89 637.537C649.711 640.079 646.07 645.178 646.07 645.178" fill="none" opacity="1" stroke="#000409" stroke-dasharray="4.0" stroke-linecap="butt" stroke-linejoin="round" stroke-width="0.5" vectornator:layerName="Curve 8"/>
<path d="M679.523 565.863L674.447 562.465L661.733 562.516L655.43 558.179C655.43 558.179 639.159 563.957 630.076 571.875C620.994 579.794 597.211 607.134 585.245 592.308L574.687 585.594C574.687 585.594 567.378 574.592 565.619 571.455C563.861 568.318 555.404 562.974 550.716 561.618C546.028 560.262 534.804 556.191 534.804 556.191" fill="none" opacity="1" stroke="#000409" stroke-dasharray="4.0" stroke-linecap="butt" stroke-linejoin="round" stroke-width="0.5" vectornator:layerName="Curve 9"/>
<path d="M777.788 672.722L784.284 684.163C784.284 684.163 771.388 706.859 784.611 734.115C797.835 761.37 792.389 768.267 792.024 769.755C791.658 771.243 811.109 777.321 811.109 777.321L815.332 790.599C815.332 790.599 843.587 776.987 849.168 771.787C854.75 766.587 848.143 750.397 858.652 745.539C869.161 740.68 863.295 742.489 863.295 742.489" fill="none" opacity="1" stroke="#000409" stroke-dasharray="4.0" stroke-linecap="butt" stroke-linejoin="round" stroke-width="0.5" vectornator:layerName="Curve 10"/>
<path d="M814.689 791.076C814.689 791.076 814.842 805.125 799.857 817.637C784.873 830.148 803.05 823.488 792.096 842.439L782.222 855.442L770.638 863.512L760.652 856.963L755.967 860.1L739.418 874.088L725.293 892.886L723.039 899.861" fill="none" opacity="1" stroke="#000409" stroke-dasharray="4.0" stroke-linecap="butt" stroke-linejoin="round" stroke-width="0.5" vectornator:layerName="Curve 11"/>
<path d="M755.836 860.358C755.836 860.358 769.455 831.392 757.09 814.207L745.004 802.851C745.004 802.851 743.469 791.834 736.438 788.415L734.888 779.339L723.734 755.949L709.456 752.086" fill="none" opacity="1" stroke="#000409" stroke-dasharray="4.0" stroke-linecap="butt" stroke-linejoin="round" stroke-width="0.5" vectornator:layerName="Curve 12"/>
<path d="M566.651 515.431L547.675 517.792L524.599 510.675L497.083 510.025C497.083 510.025 471.614 496.074 464.935 506.838L456.31 514.104L446.133 517.876C446.133 517.876 426.922 536.453 405.537 527.701L384.15 522.233C384.15 522.233 379.743 523.78 356.533 507.867C356.533 507.867 345.749 501.984 337.926 498.264C337.926 498.264 328.394 492.256 327.989 489.302C327.583 486.348 328.997 483.351 328.997 483.351" fill="none" opacity="1" stroke="#000409" stroke-dasharray="4.0" stroke-linecap="butt" stroke-linejoin="round" stroke-width="0.5" vectornator:layerName="Curve 13"/>
<path d="M387.947 523.439L370.873 529.316L362.267 548.642L362.527 555.799L358.449 561.017C358.449 561.017 362.881 562.257 365.521 569.217L376.585 580.117L379.139 594.996L403.214 599.969C403.214 599.969 439.336 599.73 438.781 589.812L437.461 578.468L443.535 572.069C443.535 572.069 440.449 559.351 453.21 549.503C453.21 549.503 469.194 539.851 456.584 531.907L449.479 526.928L446.079 518.302" fill="none" opacity="1" stroke="#000409" stroke-dasharray="4.0" stroke-linecap="butt" stroke-linejoin="round" stroke-width="0.5" vectornator:layerName="Curve 14"/>
<path d="M438.082 593.036L452.262 594.642L455.015 606.073L453.897 616.208L467.919 627.223C467.919 627.223 469.313 627.437 471.295 637.729C473.277 648.021 477.167 645.681 477.167 645.681C477.167 645.681 485.462 647.081 486.581 646.602L499.984 639.995" fill="none" opacity="1" stroke="#000409" stroke-dasharray="4.0" stroke-linecap="butt" stroke-linejoin="round" stroke-width="0.5" vectornator:layerName="Curve 15"/>
<path d="M364.31 568.317L355.709 594.922C355.709 594.922 349.271 609.227 364.213 622.462C379.156 635.697 375.662 643.678 364.69 654.94L352.178 666.949L343.375 686.813L345.529 705.951C345.529 705.951 329.079 743.534 294.126 737.924L258.385 731.11C258.385 731.11 220.048 736.654 212.152 748.408L207.316 763.751" fill="none" opacity="1" stroke="#000409" stroke-dasharray="4.0" stroke-linecap="butt" stroke-linejoin="round" stroke-width="0.5" vectornator:layerName="Curve 16"/>
<path d="M345.764 706.379C345.764 706.379 386.208 683.611 400.693 700.181C415.178 716.75 396.702 719.826 427.855 722.91L450.46 727.19L473.657 723.484C473.657 723.484 486.039 734.959 504.139 729.346L538.795 721.068L547.214 724.155" fill="none" opacity="1" stroke="#000409" stroke-dasharray="4.0" stroke-linecap="butt" stroke-linejoin="round" stroke-width="0.5" vectornator:layerName="Curve 17"/>
</g>
</svg>