<?xml version="1.0" encoding="UTF-8" standalone="no"?>
<!DOCTYPE svg PUBLIC "-//W3C//DTD SVG 1.1//EN" "http://www.w3.org/Graphics/SVG/1.1/DTD/svg11.dtd">
<!-- Created with Vectornator (http://vectornator.io/) -->
<svg height="100%" stroke-miterlimit="10" style="fill-rule:nonzero;clip-rule:evenodd;stroke-linecap:round;stroke-linejoin:round;" version="1.1" viewBox="0 0 1000 1000" width="100%" xml:space="preserve" xmlns="http://www.w3.org/2000/svg" xmlns:vectornator="http://vectornator.io" xmlns:xlink="http://www.w3.org/1999/xlink">
<g id="Layer-1" opacity="0.5" vectornator:layerName="Layer 1" visibility="hidden">
<use opacity="1" transform="matrix(0.25 0 0 0.25 0 50)" vectornator:layerName="Image 1" xlink:href="#Image"/>
</g>
<g id="Layer-4-copy" vectornator:layerName="Layer 4 copy">
<path d="M718.859 349.552L728.302 334.814L756.976 324.849L771.796 308.292C771.796 308.292 788.992 291.743 760.424 285.764C760.424 285.764 748.379 281.921 751.109 258.323L757.61 240.805L739.876 228.928L736.146 206.876L721.316 218.019L708.246 232.223L692.748 251.452L674.746 278.476L650.145 285.687L640.616 308.704L642.849 317.549L643.222 324.886L650.056 334.96L662.706 343.382L664.428 339.52L679.745 336.67L698.434 337.16L713.431 340.155L718.859 349.552Z" fill="#3395ff" fill-opacity="0.05" fill-rule="nonzero" opacity="1" stroke="none" vectornator:layerName="Curve 1"/>
<path d="M679.523 565.863L674.447 562.465L661.733 562.516L655.43 558.179C655.43 558.179 639.159 563.957 630.076 571.875C620.994 579.794 597.211 607.134 585.245 592.308L574.687 585.594C574.687 585.594 567.378 574.592 565.619 571.455C563.861 568.318 555.404 562.974 550.716 561.618C546.028 560.262 534.804 556.191 534.804 556.191L559.337 539.412L562.755 522.921L567.591 515.596L598.974 493.841L654.42 462.973L669.25 460.933L686.118 444.223L683.651 454.055L688.371 460.592L700.272 462.525L730.122 467.674L761.201 480.229L756.897 484.077L751.861 498.113L748.692 501.749L741.789 503.175L730.806 503.131L721.901 507.081L714.794 513.295L711.56 520.305L712.265 529.062L709.924 542.048L705.435 545.686L690.825 553.068L681.659 562.419L679.523 565.863Z" fill="#3395ff" fill-opacity="0.05" fill-rule="nonzero" opacity="1" stroke="none" vectornator:layerName="Curve 20"/>
<path d="M755.836 860.358C755.836 860.358 769.455 831.392 757.09 814.207L745.004 802.851C745.004 802.851 743.469 791.834 736.438 788.415L734.888 779.339L723.734 755.949L709.456 752.086L703.464 734.999L706.057 724.051L721.105 718.234L733.358 707.271L741.516 696.322L762.087 690.076L768.257 679.773L777.629 673.31L783.762 683.472L779.686 694.526L778.736 721.796L786.696 741.421L793.114 757.548L791.726 770.588L810.497 778.356L814.165 789.144L812.331 800.148L807.045 809.749L798.738 818.379L792.913 824.744L794.1 831.325L794.963 836.611L788.011 847.051L779.196 857.66L770.619 862.958L762.097 857.642L755.836 860.358Z" fill="#3395ff" fill-opacity="0.05" fill-rule="nonzero" opacity="1" stroke="none" vectornator:layerName="Curve 19"/>
<path d="M345.764 706.379C345.764 706.379 386.208 683.611 400.693 700.181C415.178 716.75 396.702 719.826 427.855 722.91L450.46 727.19L473.657 723.484C473.657 723.484 486.039 734.959 504.139 729.346L538.795 721.068L547.214 724.155L543.983 701.148L506.953 649.393L499.786 639.698L487.151 646.825L474.75 645.941L467.964 628.233L453.24 616.534L451.922 596.169L437.202 593.671L423.731 598.28L402.226 599.904L380.562 595.542L376.491 580.544L364.777 568.83L356.908 592.224L354.83 605.077L357.598 614.111L370.38 627.782L374.407 635.428L373.838 643.476L367.253 652.663L352.248 667.677L343.711 687.329L345.764 706.379Z" fill="#3395ff" fill-opacity="0.05" fill-rule="nonzero" opacity="1" stroke="none" vectornator:layerName="Curve 18"/>
<path d="M765.749 286.945C765.749 286.945 781.026 292.067 795.49 273.784L798.544 272.57L799.912 259.478C799.912 259.478 803.358 247.254 818.468 244.565L838.44 243.18C838.44 243.18 843.739 244.239 848.453 234.219L852.02 227.747L855.048 221.069L841.943 212.938L836.525 211.568L769.715 206.772L759.545 199.549L749.703 200.909L736.073 207.434L740.047 229.144L757.873 240.712L751.087 257.886L751.273 270.069L754.198 279.758L759.51 285.26L765.749 286.945Z" fill="#3395ff" fill-opacity="0.05" fill-rule="nonzero" opacity="1" stroke="none" vectornator:layerName="Curve 2"/>
<path d="M798.235 272.295C798.235 272.295 805.737 274.048 807.915 273.045C810.093 272.042 813.881 273.876 817.219 275.995C820.557 278.114 825.235 273.975 830.813 276.285C836.391 278.596 841.711 282.493 844.559 286.283L844.573 291.32L855.112 303.565L857.074 306.476L874.763 305.249C874.763 305.249 874.661 310.77 881.409 307.754C888.158 304.737 890.509 302.692 890.509 302.692L903.044 291.15L913.406 274.425L915.282 261.607L912.159 254.79L894.557 238.085L894.92 226.764L899.315 212.649L902.315 208.317L891.106 203.924L855.048 220.561L848.105 237.257L843.887 241.86L838.292 243.587L828.978 244.078L817.358 245.25L807.085 249.392L802.761 254.68L799.749 261.545L798.235 272.295Z" fill="#3395ff" fill-opacity="0.05" fill-rule="nonzero" opacity="1" stroke="none" vectornator:layerName="Curve 3"/>
<path d="M798.235 272.295C798.235 272.295 805.737 274.048 807.915 273.045C810.093 272.042 813.881 273.876 817.219 275.995C820.557 278.114 825.235 273.975 830.813 276.285C836.391 278.596 841.711 282.493 844.559 286.283L844.573 291.32L855.112 303.565L857.074 306.476L874.763 305.249C874.763 305.249 874.661 310.77 881.409 307.754C888.158 304.737 890.509 302.692 890.509 302.692L889.699 316.236L899.088 335.379L894.694 348.932L894.912 364.171L881.787 372.994L870.193 371.39L856.437 377.311L853.993 370.7L848.045 369.625L848.194 361.753L843.45 359.659L834.556 359.585L833.926 350.62L780.277 357.761L767.408 361.867L760.89 365.771L760.174 368.666L742.356 365.845L732.344 368.565L729.236 353.351L718.827 349.037L728.614 334.886L756.25 325.37L775.456 304.93L777.58 300.617L777.037 294.557L771.224 289.089L781.805 285.983L790.81 279.752L795.785 273.905L798.235 272.295Z" fill="#3395ff" fill-opacity="0.05" fill-rule="nonzero" opacity="1" stroke="none" vectornator:layerName="Curve 23"/>
<path d="M494.994 406.491C494.994 406.491 506.13 403.15 517.525 399.129C528.92 395.107 524.387 388.043 539.462 388.842C554.536 389.64 557.933 395.281 578.456 395.547C598.979 395.813 607.811 393.805 617.736 391.434C627.661 389.063 639.824 391.021 639.824 391.021L656.365 387.38L682.903 394.776L703.558 378.328L723.009 369.488L732.465 368.256L729.8 353.321L718.79 349.344L714.063 339.883L683.299 336.703L664.596 340.097L663.286 344.06L650.008 335.575L642.921 325.827L640.591 309.212L626.827 301.991L614.683 303.757L609.084 309.439L600.045 308.461L594.745 303.6L587.174 302.644L571.965 304.89L560.897 296.595L552.592 298.464L541.092 312.53L518.396 324.416L506.279 334.321L502.04 347.261L481.61 369.89L494.994 406.491Z" fill="#3395ff" fill-opacity="0.05" fill-rule="nonzero" opacity="1" stroke="none" vectornator:layerName="Curve 22"/>
<path d="M552.811 298.972L555.912 278.768C555.912 278.768 573.194 271.81 575.542 248.523C575.542 248.523 584.44 233.592 608.487 223.772L633.07 214.076L643.227 218.357L650.642 214.851C650.642 214.851 660.997 231.149 676.463 233.209L698.359 232.667L703.57 235.614L693.217 249.727L680.265 269.282L674.572 278.738L650.027 285.489L640.289 308.712L627.073 302.299L614.033 303.827L609.051 309.162L600.459 308.47L594.598 303.693L586.286 302.365L572.583 304.817L561.052 296.521L552.811 298.972Z" fill="#3395ff" fill-opacity="0.05" fill-rule="nonzero" opacity="1" stroke="none" vectornator:layerName="Curve 4"/>
<path d="M494.994 406.491C494.994 406.491 506.13 403.15 517.525 399.129C528.92 395.107 524.387 388.043 539.462 388.842C554.536 389.64 557.933 395.281 578.456 395.547C598.979 395.813 607.811 393.805 617.736 391.434C627.661 389.063 639.824 391.021 639.824 391.021L656.365 387.38L682.903 394.776L666.197 410.968L670.819 425.765L675.73 437.86L679.154 439.278L681.84 443.667L685.305 443.722L668.894 460.476L654.582 462.745L598.612 493.946L568.04 515.082L563.432 507.63L552.687 496.693L530.384 484.647L515.302 473.393L510.022 468.028L506.109 462.174L505.672 456.783L498.322 412.895L494.994 406.491Z" fill="#3395ff" fill-opacity="0.05" fill-rule="nonzero" opacity="1" stroke="none" vectornator:layerName="Curve 5"/>
<path d="M745.905 440.219L754.173 439.626C754.173 439.626 769.726 445.742 770.485 438.184C770.485 438.184 765.682 434.901 779.985 424.718C779.985 424.718 777.936 419.729 783.485 417.186C789.035 414.642 791.911 413.281 794.455 413.391C797 413.5 790.807 410.257 790.807 410.257L790.094 403.264L786.797 397.715L787.432 393.096L794.318 388.073L798.682 386.076L796.749 381.131L801.517 374.501L800.175 372.782L785.128 376.554L775.853 376.627L769.07 380.013L764.262 384.224L760.538 389.617L758.194 393.973L754.998 397.383L749.11 399.51L737.177 395.474L720.142 390.894L713.277 396.939L709.003 406.127L706.966 413.716L708.212 421.857L712.987 426.496L717.2 429.925L720.415 435.015L734.801 437.243L745.905 440.219Z" fill="#3395ff" fill-opacity="0.05" fill-rule="nonzero" opacity="1" stroke="none" vectornator:layerName="Curve 21"/>
<path d="M804.521 370.226C804.521 370.226 799.509 377.439 797.317 380.521C795.126 383.603 801.189 386.298 797.209 387.793C793.229 389.288 786.99 391.312 787.268 396.132C787.545 400.951 790.216 401.069 790.426 405.477C790.636 409.885 792.173 412.606 796.59 415.569C801.007 418.533 800.587 414.712 802.284 423.495C803.981 432.278 800.354 437.896 807.038 442.077C813.722 446.258 817.829 449.549 820.238 447.626C822.648 445.703 823.249 439.912 830.663 442.456L835.243 436.931L839.459 434.605L839.456 432.505L841.148 427.429L840.091 423.834L842.417 419.393L840.866 411.921L842.417 399.445L834.804 399.515L838.399 393.523L835.579 389.576L838.61 385.417L833.251 372.232L826.203 367.789L816.969 365.09L807.434 366.375L804.521 370.226Z" fill="#3395ff" fill-opacity="0.05" fill-rule="nonzero" opacity="1" stroke="none" vectornator:layerName="Curve 6"/>
<path d="M745.905 440.219L754.173 439.626C754.173 439.626 769.726 445.742 770.485 438.184C770.485 438.184 765.682 434.901 779.985 424.718C779.985 424.718 777.936 419.729 783.485 417.186C789.035 414.642 791.911 413.281 794.455 413.391L801.526 419.18L802.798 437.648L817.713 448.796L824.388 443.042L830.645 443.342L840.011 433.983L844.55 456.597L829.613 468.981L817.049 477.042L817.404 481.874L816.963 485.532L807.97 490.303L800.371 488.619L792.948 485.763L788.232 481.587L774.813 476.481L771.693 469.609L766.695 468.219L764.097 462.879L757.931 460.342L752.21 461.322L747.944 451.059L745.905 440.219Z" fill="#3395ff" fill-opacity="0.05" fill-rule="nonzero" opacity="1" stroke="none" vectornator:layerName="Curve 7"/>
<path d="M762.996 481.331C762.996 481.331 758.799 478.071 754.41 492.103C750.02 506.134 748.256 501.982 741.022 503.197C733.788 504.413 726.079 501.651 717.159 512.118C708.24 522.585 714.187 521.718 711.931 532.338C709.676 542.958 713.155 543.282 701.022 548.054L688.382 555.825C688.382 555.825 686.607 554.906 679.611 566.658C672.614 578.411 666.685 596.588 666.685 596.588C666.685 596.588 662.941 608.576 661.97 610.403C661 612.229 665.628 614.581 662.898 621.176C660.168 627.772 654.068 634.995 651.89 637.537C649.711 640.079 646.07 645.178 646.07 645.178L650.299 640.469L657.294 639.043L663.493 639.205L673.38 642.502L714.593 630.233L730.603 625.884L747.366 617.767L759.699 604.325L762.822 597.613L773.091 582.734L784.908 572.572L791.995 568.305L801.015 567.456L806.193 567.84L803.988 523.18L800.674 515.915L792.603 506.02L786.17 504.467L778.513 506.804L776.928 504.604L773.308 488.994L768.218 482.778L762.996 481.331Z" fill="#3395ff" fill-opacity="0.05" fill-rule="nonzero" opacity="1" stroke="none" vectornator:layerName="Curve 8"/>
<path d="M679.523 565.863L674.447 562.465L661.733 562.516L655.43 558.179C655.43 558.179 639.159 563.957 630.076 571.875C620.994 579.794 597.211 607.134 585.245 592.308L574.687 585.594C574.687 585.594 567.378 574.592 565.619 571.455C563.861 568.318 555.404 562.974 550.716 561.618C546.028 560.262 534.804 556.191 534.804 556.191L520.326 571.955L515.266 582.636L514.049 596.73L514.134 609.348L505.586 621.082L500.173 633.924L500.988 642.143L509.43 651.566L528.059 677.615L544.11 699.485L547.625 723.787L554.723 736.168L555.85 757.51L559.517 757.774L559.553 764.991L564.197 764.759L576.88 747.359L615.076 730.21L624.856 718.211L625.19 704.421L627.882 696.98L651.459 681.419L649.157 668.065L645.03 651.051L647.735 642.04L664.096 619.484L662.707 608.612L669.215 586.048L679.523 565.863Z" fill="#3395ff" fill-opacity="0.05" fill-rule="nonzero" opacity="1" stroke="none" vectornator:layerName="Curve 9"/>
<path d="M777.788 672.722L784.284 684.163C784.284 684.163 771.388 706.859 784.611 734.115C797.835 761.37 792.389 768.267 792.024 769.755C791.658 771.243 811.109 777.321 811.109 777.321L815.332 790.599C815.332 790.599 843.587 776.987 849.168 771.787C854.75 766.587 848.143 750.397 858.652 745.539C869.161 740.68 863.295 742.489 863.295 742.489L853.089 744.094L850.436 740.6L852.1 734.688L856.633 730.2L861.736 715.959L864.741 716.806L862.061 685.715L856.621 682.172L843.612 682.138L832.811 684.296L815.996 672.213L813.212 662.412L801.652 664.676L800.886 656.33L797.681 648.136L791.955 643.594L792.539 637.258L787.761 640.498L784.738 639.362L783.943 647.492L785.701 653.284L780.71 660.749L777.788 672.722Z" fill="#3395ff" fill-opacity="0.05" fill-rule="nonzero" opacity="1" stroke="none" vectornator:layerName="Curve 10"/>
<path d="M814.689 791.076C814.689 791.076 814.842 805.125 799.857 817.637C784.873 830.148 803.05 823.488 792.096 842.439L782.222 855.442L770.638 863.512L760.652 856.963L755.967 860.1L739.418 874.088L725.293 892.886L723.039 899.861L730.743 927.885L743.217 931.575L749.279 939.305L760.083 939.568L763.334 940.886L766.847 938.953L766.935 932.453L768.78 926.655L769.395 916.992L785.646 901.181L799.34 896.766L805.053 895.907L801.262 885.097L814.725 872.38L818.442 865.174L817.24 861.31L813.585 860.449L815.311 840.081L822.712 827.735L836.569 817.311L849.083 810.923L859.587 812.987L879.342 787.365L888.848 779.79L884.912 766.497L877.188 750.604L874.515 746.965L871.841 746L870.356 740.207L862.187 742.732L853.423 749.342L852.012 759.887L851.715 769.096L845.403 776.3L828.544 784.766L814.689 791.076Z" fill="#3395ff" fill-opacity="0.05" fill-rule="nonzero" opacity="1" stroke="none" vectornator:layerName="Curve 11"/>
<path d="M755.836 860.358C755.836 860.358 769.455 831.392 757.09 814.207L745.004 802.851C745.004 802.851 743.469 791.834 736.438 788.415L734.888 779.339L723.734 755.949L709.456 752.086L713.759 795.529L701.244 816.016L689.019 824.338L674.979 844.525L674.012 856.502L669.867 864.36L674.712 874.138L676.8 882.631L696.455 882.346L707.419 889.791L715.722 888.728L718.511 895.79L723.251 900.067L725.592 891.776L738.575 873.974L755.836 860.358Z" fill="#3395ff" fill-opacity="0.05" fill-rule="nonzero" opacity="1" stroke="none" vectornator:layerName="Curve 12"/>
<path d="M566.616 515.362L547.639 517.723L524.564 510.606L497.047 509.956C497.047 509.956 471.578 496.005 464.9 506.769L456.275 514.035L446.098 517.807C446.098 517.807 426.887 536.384 405.502 527.632L384.114 522.163C384.114 522.163 379.707 523.711 356.497 507.798C356.497 507.798 345.713 501.915 337.891 498.195C337.891 498.195 328.359 492.186 327.953 489.233C327.547 486.279 328.962 483.281 328.962 483.281L344.541 464.995L371.084 437.121L392.406 420.255L409.397 412.065L417.806 411.378L435.28 414.41L449.793 415.15L467.993 412.474L473.609 409.811L481.397 370.226L498.024 413.609L505.828 456.157L505.198 460.277L510.716 469.224L522.402 478.775L536.01 487.635L552.777 497.003L561.369 505.354L566.48 512.265L566.616 515.362Z" fill="#3395ff" fill-opacity="0.05" fill-rule="nonzero" opacity="1" stroke="none" vectornator:layerName="Curve 13"/>
<path d="M387.947 523.439L370.873 529.316L362.267 548.642L362.527 555.799L358.449 561.017C358.449 561.017 362.881 562.257 365.521 569.217L376.585 580.117L379.139 594.996L403.214 599.969C403.214 599.969 439.336 599.73 438.781 589.812L437.461 578.468L443.535 572.069C443.535 572.069 440.449 559.351 453.21 549.503C453.21 549.503 469.194 539.851 456.584 531.907L449.479 526.928L446.079 518.302L435.378 525.674L421.63 530.557L406.822 528.869L387.947 523.439Z" fill="#3395ff" fill-opacity="0.05" fill-rule="nonzero" opacity="1" stroke="none" vectornator:layerName="Curve 14"/>
<path d="M438.082 593.036L452.262 594.642L455.015 606.073L453.897 616.208L467.919 627.223C467.919 627.223 469.313 627.437 471.295 637.729C473.277 648.021 477.167 645.681 477.167 645.681C477.167 645.681 485.462 647.081 486.581 646.602L499.984 639.995L501.087 628.257L513.868 609.721L512.016 590.67L523.882 566.12L541 550.466L558.694 539.209L564.962 516.797L547.122 517.541L523.567 510.56L497.625 510.797L484.427 504.674L468.854 503.859L457.957 512.715L445.364 518.464L449.02 526.796L460.982 535.539L460.725 544.081L448.514 554.69L444.089 563.83L443.785 572.205L437.781 578.739L438.082 593.036Z" fill="#3395ff" fill-opacity="0.05" fill-rule="nonzero" opacity="1" stroke="none" vectornator:layerName="Curve 15"/>
<path d="M364.31 568.317L355.709 594.922C355.709 594.922 349.271 609.227 364.213 622.462C379.156 635.697 375.662 643.678 364.69 654.94L352.178 666.949L343.375 686.813L345.529 705.951C345.529 705.951 329.079 743.534 294.126 737.924L258.385 731.11C258.385 731.11 220.048 736.654 212.152 748.408L207.316 763.751L194.257 741.161L179.761 729.984L161.168 724.639L143.121 709.482L136.816 697.387L137.466 682.019L179.054 652.831L202.207 609.529L238.321 570.576L274.611 532.796L329.258 483.763L327.986 489.496L338.114 498.103L359.511 510.352L376.11 520.044L386.938 523.617L369.435 528.689L361.873 548.616L362.165 555.434L358.901 560.12L364.31 568.317Z" fill="#3395ff" fill-opacity="0.05" fill-rule="nonzero" opacity="1" stroke="none" vectornator:layerName="Curve 16"/>
<path d="M345.764 706.379C345.764 706.379 386.208 683.611 400.693 700.181C415.178 716.75 396.702 719.826 427.855 722.91L450.46 727.19L473.657 723.484C473.657 723.484 486.039 734.959 504.139 729.346L538.795 721.068L547.214 724.155L554.508 735.803L555.888 757.379L552.787 768.05L541.808 771.144L531.775 780.451L517.132 779.965L515.15 793.36L509.015 798.306L502.571 798.27L494.105 804.762L487.124 805.476L487.205 810.251L479.964 821.081L480.888 835.655L481.059 839.843L467.67 861.727L467.616 867.442L460.524 879.186L447.098 884.025L439.323 878.997L444.838 864.945L444.835 849.734L425.168 839.515L396.83 842.097L390.382 851.634L381.266 857.905L373.404 851.661L361.345 848.385L358.396 842.224L334.598 843.684L322.696 852.664L314.714 850.954L294.958 834.202L290.661 830.055L286.189 831.248L286.957 810.333L271.277 804.037L248.697 794.042L229.895 793.074L211.985 788.236L202.666 777.712L203.492 771.813L207.374 764.335L213.641 746.814C213.641 746.814 241.321 729.015 257.312 732.034C257.312 732.034 302.308 740.027 309.64 738.101C316.972 736.176 308.908 738.623 308.908 738.623C308.908 738.623 323.867 734.828 331.684 726.827C339.5 718.827 331.168 727.643 331.168 727.643L345.764 706.379Z" fill="#3395ff" fill-opacity="0.05" fill-rule="nonzero" opacity="1" stroke="none" vectornator:layerName="Curve 17"/>
</g>
</svg>