<?xml version="1.0" encoding="UTF-8" standalone="no"?>
<!DOCTYPE svg PUBLIC "-//W3C//DTD SVG 1.1//EN" "http://www.w3.org/Graphics/SVG/1.1/DTD/svg11.dtd">
<!-- Created with Vectornator (http://vectornator.io/) -->
<svg height="100%" stroke-miterlimit="10" style="fill-rule:nonzero;clip-rule:evenodd;stroke-linecap:round;stroke-linejoin:round;" version="1.1" viewBox="0 0 1000 1000" width="100%" xml:space="preserve" xmlns="http://www.w3.org/2000/svg" xmlns:vectornator="http://vectornator.io" xmlns:xlink="http://www.w3.org/1999/xlink">
<g id="Layer-1" opacity="0.5" vectornator:layerName="Layer 1" visibility="hidden">
<use opacity="1" transform="matrix(0.25 0 0 0.25 0 50)" vectornator:layerName="Image 1" xlink:href="#Image"/>
</g>
<g id="Layer-3-copy" vectornator:layerName="Layer 3 copy">
<path d="M732.462 367.972L729.493 353.457L719.086 348.948L713.93 340.016C713.93 340.016 682.937 332.432 664.439 340.035L663.046 343.97L650.125 335.527L642.94 325.216C642.94 325.216 644.29 322.168 640.669 308.689L650.244 285.365L674.547 278.929C674.547 278.929 717.977 199.604 759.433 199.517L769.702 206.874C769.702 206.874 839.963 209.851 842.909 212.913C845.855 215.975 855.008 220.813 855.008 220.813L891.072 203.805L902.664 208.47L896.855 220.169L893.933 231.741L895.639 238.77L912.69 255.583L915.081 265.2C915.081 265.2 912.646 288.837 891.883 302.16L889.583 304.429L890.199 316.095L899.654 336.26L899.697 340.783L894.399 349.204L894.515 364.157L881.509 372.938L870.405 371.285L856.988 377.26L853.772 370.73L848.189 369.088L847.901 363.381L842.4 359.522L834.681 359.932L833.86 350.49L807.321 353.935L785.374 357.216L768.682 362.134L760.8 366.224L760.097 368.567L747.519 366.317L739.882 366.255L732.462 367.972Z" fill="#3395ff" fill-opacity="0.05" fill-rule="nonzero" opacity="1" stroke="none" vectornator:layerName="Curve 1"/>
<path d="M640.531 308.845L627.204 301.97L614.505 303.729L609.146 309.396L600.103 308.424L594.72 303.868L586.76 302.719L572.088 304.761L561.127 296.961L552.776 298.132L540.269 312.336L518.549 324.302L506.54 334.097L502.145 346.794L490.691 360.205L481.635 369.707L498.349 413.799L505.738 457.1C505.738 457.1 498.561 469.067 552.832 497.144C552.832 497.144 566.479 508.281 567.577 515.339L598.827 494.202L654.474 462.626L669.29 460.473L684.831 444.728L681.31 444.234L679.084 439.251L674.737 435.222L670.178 425.998L666.361 410.518L685.758 392.024L701.466 379.863L717.811 371.472L725.052 368.96L732.702 368.367L729.451 353.555L719.011 348.69L713.694 340.134L712.008 339.821L700.558 337.648L689.856 336.542L678.651 336.816L669.277 338.438L664.505 339.905L663.17 343.704L650.25 335.613L643.044 325.332L643.248 322.197L642.623 317.833L641.02 309.804L640.531 308.845Z" fill="#3395ff" fill-opacity="0.05" fill-rule="nonzero" opacity="1" stroke="none" vectornator:layerName="Curve 2"/>
<path d="M805.961 366.602C805.961 366.602 807.879 374.307 778.372 376.321C778.372 376.321 767.886 376.877 761.534 388.719C755.183 400.561 750.946 399.33 749.173 399.53C747.401 399.729 723.603 388.251 717.753 392.05C711.903 395.848 702.282 414.339 709.749 423.771L717.605 430.828C717.605 430.828 717.551 438.37 735.435 437.562L745.994 440.686L747.66 450.988L751.792 461.675C751.792 461.675 759.551 459.938 763.098 463.224C766.645 466.51 766.339 468.686 766.339 468.686L772.376 470.307L774.772 476.357L787.773 481.003L791.217 486.927C791.217 486.927 793.873 485.434 798.199 488.03C802.525 490.626 818.222 493.616 817.246 481.232C817.246 481.232 812.158 476.456 829.242 469.301L844.45 455.35C844.45 455.35 845.136 457.923 844.083 451.209C843.029 444.495 841.581 436.465 841.581 436.465L839.409 432.318L841.055 428.303L840.265 424.749L841.976 420.47L841.581 411.123L842.364 399.38L834.885 399.591L837.778 393.806L835.498 389.426L837.999 385.238C837.999 385.238 834.441 370.549 827.818 368.156C821.195 365.763 817.947 364.951 813.973 365.848C809.999 366.746 805.961 366.602 805.961 366.602Z" fill="#3395ff" fill-opacity="0.05" fill-rule="nonzero" opacity="1" stroke="none" vectornator:layerName="Curve 2"/>
<path d="M792.178 637.736L787.882 640.374L785.47 638.867L784.265 647.232L786.036 651.98L780.346 660.345L777.859 672.705C777.859 672.705 768.623 672.219 762.267 689.891L747.169 693.608L741.2 695.483C741.2 695.483 730.476 716.508 708.734 722.488C708.734 722.488 701.245 725.452 703.819 734.507L710.09 754.022L713.948 795.277C713.948 795.277 703.996 818.292 689.899 824.024L675.206 844.7L673.328 857.551L670.309 863.984L675.056 875.012L677.108 882.984L697.083 882.577L707.628 889.814L716.436 888.935C716.436 888.935 717.273 897.322 723.201 900.103L725.867 911.779L730.941 928.226C730.941 928.226 732.907 927.628 742.564 931.454L750.029 939.077L759.705 939.219L763.178 941.264L766.397 939.187L766.809 932.383C766.809 932.383 771.79 923.642 769.4 916.433L785.587 900.967L799.557 896.736L805.155 895.749L801.436 885.201L814.81 872.256L817.824 864.816L816.689 860.722L814.077 859.987L813.235 855.206C813.235 855.206 809.76 824.204 849.62 811.18L859.686 813.168L880.861 785.641L888.618 779.388C888.618 779.388 887.193 764.983 874.766 747.411L871.927 746.374L870.231 740.547L856.179 744.43C856.179 744.43 848.116 746.092 852.669 734.125L856.184 730.955L861.77 716.004L864.586 717.37L864.385 707.303L862.118 685.588C862.118 685.588 857.16 677.01 832.855 684.648L825.905 679.872L815.738 671.629L813.225 662.407L801.878 664.992L800.719 655.924L797.262 648.789L791.792 643.148L792.178 637.736Z" fill="#3395ff" fill-opacity="0.05" fill-rule="nonzero" opacity="1" stroke="none" vectornator:layerName="Curve 3"/>
<path d="M506.165 334.773C506.165 334.773 526.161 290.933 486.901 281.145L458.518 266.323C458.518 266.323 412.408 236.731 419.534 191.356L415.379 167.071L393.625 139.976L401.436 118.66L411.209 100.35L404.542 95.8679L399.58 87.3703L398.146 81.4879L392.96 82.7345L384.842 73.7145L360.498 72.0479L348.319 63.3212L324.721 61.4016L299.416 78.6084L278.209 96.7041L277.966 106.253L271.324 124.205L264.272 136.199L256.106 145.715L247.542 154.358L240.352 159.665L244.762 173.095L245.514 188.048L243.19 199.702L234.779 209.534L225.197 215.708L216.475 218.46L200.099 224.69L198.482 231.384L182.275 239.325L167.853 237.786L151.812 244.548L147.013 260.042L138.738 276.371L130.315 283.184L127.989 285.285L132.248 304.289L154.114 304.725L189.066 299.255L224.983 329.752L232.142 331.421C232.142 331.421 241.081 336.063 247.049 342.803C253.018 349.543 260.71 359.76 260.71 359.76L274.958 384.242C274.958 384.242 278.461 385.407 283.292 402.959L285.788 419.327L285.535 436.977L285.497 458.565L285.774 477.837C285.774 477.837 287.243 492.058 300.284 492.287L307.224 492.387L314.445 490.405L327.145 485.027L331.399 481.318C331.399 481.318 348.139 461.487 348.476 460.895C348.813 460.304 363.88 444.779 363.88 444.779L382.143 427.817L395.587 418.602C395.587 418.602 409.904 408.424 417.162 411.198L434.043 413.815L449.322 414.873L459.136 414.233L471.124 411.219L473.656 409.66L481.459 369.755L502.106 346.349L506.165 334.773ZM506.405 334.729" fill="#3395ff" fill-opacity="0.05" fill-rule="nonzero" opacity="1" stroke="none" vectornator:layerName="Curve 7"/>
<path d="M506.165 334.773C506.165 334.773 526.161 290.933 486.901 281.145L458.518 266.323C458.518 266.323 412.408 236.731 419.534 191.356L415.379 167.071L393.625 139.976L401.436 118.66L411.209 100.35L430.861 106.171L444.352 106.278L480.668 111.927L501.732 100.21L527.251 99.7098L548.738 101.834L562.729 92.8391L588.286 93.1307L629.649 98.7583L669.362 85.3754L694.021 82.6506L713.095 86.7378L733.198 83.5111L743.51 76.364L760.459 74.0157L765.156 76.2619L776.387 71.0547L795.22 66.741L806.46 72.252L820.311 72.6347L835.082 67.2776L848.245 68.6552L869.414 62.8021L887.13 62.2653L897.969 64.2025L908.007 76.0229L920.117 98.2308L929.786 118.553L937.498 140.167L916.669 140.894L914.521 144.886L914.779 148.926L917.227 151.074L912.018 151.192L905.546 155.274L907.15 158.714L912.608 160.005L912.727 163.671L904.765 171.836L911.75 182.882L917.059 182.73L906.697 200.883L906.847 204.347L902.309 207.948L890.743 203.233L854.007 220.139L842.609 211.83L769.908 206.219L759.668 198.92L743.64 201.497L723.755 214.767L708.163 230.397L692.494 250.222L685.83 259.484L674.39 278.17L650.144 284.971L640.258 308.315L627.41 301.918L614.266 303.296L608.803 308.911L600.108 308.035L594.978 303.634L586.434 302.097L572.036 304.194L560.888 296.653L552.481 298.018L539.703 312.461L518.227 323.801L506.165 334.773Z" fill="#3395ff" fill-opacity="0.05" fill-rule="nonzero" opacity="1" stroke="none" vectornator:layerName="Curve 3"/>
<path d="M567.774 515.136C567.774 515.136 563.08 514.372 559.034 539.401C559.034 539.401 515.098 562.77 513.799 590.227L514.124 609.398C514.124 609.398 492.608 633.225 502.587 644.005C512.566 654.786 544.108 700.453 544.108 700.453L547.398 723.057L554.576 735.99L555.807 757.944M555.526 758.539L559.321 757.503L559.076 764.445L565.615 764.55L576.627 747.387L615.94 730.135L624.872 717.271L627.104 697.775L641.443 688.386L651.115 682.642L645.596 655.546L645.843 642.802L655.972 638.353L672.378 641.454L692.213 637.166L725.015 627.34L747.081 616.623L761.098 603.044L775.884 578.899L791.865 568.73L807.423 567.608L806.221 543.461L804.892 524.933L792.394 507.142L782.248 505.421L776.808 506.714L773.089 488.153L766.607 482.477L730.157 467.276L688.753 459.036L683.191 449.663L684.736 444.204L668.957 460.783L654.591 462.663C654.591 462.663 607.89 488.811 604.62 490.302C601.35 491.793 566.517 515.455 566.517 515.455" fill="#3395ff" fill-opacity="0.05" fill-rule="nonzero" opacity="1" stroke="none" vectornator:layerName="Curve 9"/>
<path d="M319.623 492.387L212.537 597.399C212.537 597.399 197.239 614.028 187.477 634.569L178.676 652.326L136.78 682.301M118.83 324.981L135.832 308.031L189.179 299.314L224.916 329.559C224.916 329.559 245.268 327.607 275.077 384.029C275.077 384.029 283.98 391.334 285.752 422.486L286.336 481.058M137.066 682.313L124.953 672.877L123.275 657.748L117.746 653.555L112.171 645.914L113.998 638.106L105.398 638.458L106.292 646.004L101.285 644.639L92.3846 639.499L80.4713 617.886L85.7189 608.376L82.8131 597.437L83.2679 581.044L65.7863 565.054L53.5442 558.747L58.77 554.293L59.8246 525.253L49.4969 487.202L43.1296 483.75L52.9574 454.351L49.0191 451.454L55.6481 435.45L73.0027 417.993L98.2614 419.053L102.631 416.914L109.885 422.337L120.511 444.128L129.355 457.113L152.306 467.662L149.871 442.844L141.869 411.721L119.914 372.248L119.05 325.408L297.422 490.344L319.623 492.387" fill="#3395ff" fill-opacity="0.05" fill-rule="nonzero" opacity="1" stroke="none" vectornator:layerName="Curve 8"/>
<path d="M567.774 515.136C567.774 515.136 563.08 514.372 559.034 539.401C559.034 539.401 515.098 562.77 513.799 590.227L514.124 609.398C514.124 609.398 492.608 633.225 502.587 644.005C512.566 654.786 544.108 700.453 544.108 700.453L547.398 723.057L554.576 735.99L555.807 757.944L552.788 767.908L544.204 769.787L532.115 778.86L518.319 779.953L514.659 793.57L508.875 798.526L503.113 798.393L493.833 805.274L487.465 806.167L487.356 809.825L479.069 821.974L479.162 830.787L481.228 839.242L468.66 861.841L468.037 868.012L461.31 878.974L446.045 884.009L439.812 879.49L445.615 859.556L444.827 848.659L427.111 839.546L396.557 841.703L391.509 850.26L380.982 858.25L373.656 851.028L360.411 848.526L358.057 842.345L335.025 843.228L322.443 851.69L312.236 849.154L291.747 830.935L285.838 830.755L286.33 810.17L248.57 793.985L231.698 793.111L212.597 789.323L201.912 778.805L202.802 773.091L206.605 764.074L194.593 741.638L180.652 730.695L164.717 725.707L148.59 716.423L137.055 698.474L137.751 681.075L179.994 651.933L194.793 622.435L207.421 602.518L321.405 495.317L350.295 460.121L376.916 434.991L402.866 416.56L415.057 411.024L450.137 415.703L474.685 410.76L481.962 370.831L497.24 410.262C497.24 410.262 505.534 455.077 505.679 459.151C505.825 463.225 521.928 479.429 521.928 479.429L544.985 495.724L557.501 501.614L567.774 515.136Z" fill="#3395ff" fill-opacity="0.05" fill-rule="nonzero" opacity="1" stroke="none" vectornator:layerName="Curve 6"/>
</g>
</svg>