<?xml version="1.0" encoding="UTF-8" standalone="no"?>
<!DOCTYPE svg PUBLIC "-//W3C//DTD SVG 1.1//EN" "http://www.w3.org/Graphics/SVG/1.1/DTD/svg11.dtd">
<!-- Created with Vectornator (http://vectornator.io/) -->
<svg height="100%" stroke-miterlimit="10" style="fill-rule:nonzero;clip-rule:evenodd;stroke-linecap:round;stroke-linejoin:round;" version="1.1" viewBox="0 0 1000 1000" width="100%" xml:space="preserve" xmlns="http://www.w3.org/2000/svg" xmlns:vectornator="http://vectornator.io" xmlns:xlink="http://www.w3.org/1999/xlink">
<g id="Layer-1" opacity="0.5" vectornator:layerName="Layer 1" visibility="hidden">
<use opacity="1" transform="matrix(0.25 0 0 0.25 0 50)" vectornator:layerName="Image 1" xlink:href="#Image"/>
</g>
<g id="Layer-3" vectornator:layerName="Layer 3">
<path d="M732.462 367.972L729.493 353.457L719.086 348.948L713.93 340.016C713.93 340.016 682.937 332.432 664.439 340.035L663.046 343.97L650.125 335.527L642.94 325.216C642.94 325.216 644.29 322.168 640.669 308.689L650.244 285.365L674.547 278.929C674.547 278.929 717.977 199.604 759.433 199.517L769.702 206.874C769.702 206.874 839.963 209.851 842.909 212.913C845.855 215.975 855.008 220.813 855.008 220.813L891.072 203.805L902.664 208.47" fill="none" opacity="1" stroke="#000409" stroke-linecap="butt" stroke-linejoin="round" stroke-width="1" vectornator:layerName="Curve 1"/>
<path d="M640.531 308.845L627.204 301.97L614.505 303.729L609.146 309.396L600.103 308.424L594.72 303.868L586.76 302.719L572.088 304.761L561.127 296.961L552.776 298.132L540.269 312.336L518.549 324.302L506.54 334.097L502.145 346.794L490.691 360.205L481.635 369.707L498.349 413.799L505.738 457.1C505.738 457.1 498.561 469.067 552.832 497.144C552.832 497.144 566.479 508.281 567.577 515.339L598.827 494.202L654.474 462.626L669.29 460.473L684.831 444.728" fill="none" opacity="1" stroke="#000409" stroke-linecap="butt" stroke-linejoin="round" stroke-width="1" vectornator:layerName="Curve 2"/>
<path d="M506.165 334.773C506.165 334.773 526.161 290.933 486.901 281.145L458.518 266.323C458.518 266.323 412.408 236.731 419.534 191.356L415.379 167.071L393.625 139.976L401.436 118.66L411.209 100.35" fill="none" opacity="1" stroke="#000409" stroke-linecap="butt" stroke-linejoin="round" stroke-width="1" vectornator:layerName="Curve 3"/>
<path d="M481.425 370.027L473.621 409.353C473.621 409.353 460.633 420.094 418.651 411.482C418.651 411.482 396.84 400.709 331.464 481.073L274.645 533.099L212.537 597.399C212.537 597.399 197.239 614.028 187.477 634.569L178.676 652.326L136.78 682.301" fill="none" opacity="1" stroke="#000409" stroke-linecap="butt" stroke-linejoin="round" stroke-width="1" vectornator:layerName="Curve 4"/>
<path d="M130.875 304.182L153.916 304.707L189.179 299.314L224.916 329.559C224.916 329.559 245.268 327.607 275.077 384.029C275.077 384.029 283.98 391.334 285.752 422.486L285.533 475.179C285.533 475.179 285.329 506.91 327.88 484.447" fill="none" opacity="1" stroke="#000409" stroke-linecap="butt" stroke-linejoin="round" stroke-width="1" vectornator:layerName="Curve 5"/>
<path d="M567.774 515.136C567.774 515.136 563.08 514.372 559.034 539.401C559.034 539.401 515.098 562.77 513.799 590.227L514.124 609.398C514.124 609.398 492.608 633.225 502.587 644.005C512.566 654.786 544.108 700.453 544.108 700.453L547.398 723.057L554.576 735.99L555.807 757.944" fill="none" opacity="1" stroke="#000409" stroke-linecap="butt" stroke-linejoin="round" stroke-width="1" vectornator:layerName="Curve 6"/>
</g>
</svg>