<?xml version="1.0" encoding="UTF-8" standalone="no"?>
<!DOCTYPE svg PUBLIC "-//W3C//DTD SVG 1.1//EN" "http://www.w3.org/Graphics/SVG/1.1/DTD/svg11.dtd">
<!-- Created with Vectornator (http://vectornator.io/) -->
<svg height="100%" stroke-miterlimit="10" style="fill-rule:nonzero;clip-rule:evenodd;stroke-linecap:round;stroke-linejoin:round;" version="1.1" viewBox="0 0 1000 1000" width="100%" xml:space="preserve" xmlns="http://www.w3.org/2000/svg" xmlns:vectornator="http://vectornator.io" xmlns:xlink="http://www.w3.org/1999/xlink">
<g id="Layer-1" opacity="0.5" vectornator:layerName="Layer 1" visibility="hidden">
<use opacity="1" transform="matrix(0.25 0 0 0.25 0 50)" vectornator:layerName="Image 1" xlink:href="#Image"/>
</g>
<g id="Layer-2" vectornator:layerName="Layer 2">
<path d="M902.153 209.016C902.153 209.016 888.896 232.521 896.959 240.174C905.022 247.827 912.949 255.891 912.949 255.891C912.949 255.891 924.155 276.253 889.853 303.859L890.302 316.426C890.302 316.426 896.927 332.971 899.269 335.649C901.611 338.328 894.936 348.847 894.936 348.847L894.534 364.353L881.401 372.964L871.169 371.236L856.685 377.216L853.761 370.838L847.914 369.11C847.914 369.11 852.129 357.662 834.629 359.767L833.971 350.556C833.971 350.556 761.833 356.783 759.95 368.353C759.95 368.353 740.114 363.818 732.889 368.37C732.889 368.37 710.051 364.614 666.189 410.826C666.189 410.826 672.312 438.265 679.326 439.748L682.321 444.71L686.23 443.872C686.23 443.872 673.758 460.811 702.052 462.114L729.537 467.804L767.849 482.862L773.958 489.014C773.958 489.014 777.334 501.289 777.154 503.673C776.975 506.056 778.453 508.126 784.644 505.335C784.644 505.335 795.601 499.897 803.6 523.181L806.465 568.579C806.465 568.579 783.874 560.043 761.856 598.772C761.856 598.772 754.761 623.629 715.228 630.061L673.097 642.815C673.097 642.815 632.174 624.476 648.778 667.939L651.56 681.411C651.56 681.411 635.665 692.371 629.332 695.802C623 699.233 625.116 717.62 625.116 717.62L615.552 729.451L576.281 748.28L565.117 764.398L558.999 764.296L559.121 757.657L556.096 757.883L552.847 767.788C552.847 767.788 538.712 769.496 532.215 780.285L517.447 780.242L514.685 793.682L508.641 798.191L503.83 798.11L493.636 804.979L487.654 805.596L487.393 810.074C487.393 810.074 475.009 819.552 481.116 838.331L468.405 861.679L467.519 867.963L461.095 879.114L446.465 883.992L439.474 878.889C439.474 878.889 450.935 851.275 442.997 848.202L425.712 839.926L396.938 842.291L390.577 851.455L380.798 858.167C380.798 858.167 375.914 854.53 373.724 851.712L361.075 848.418L358.365 842.299L335.239 843.626L322.45 852.216C322.45 852.216 314.678 855.716 290.434 830.29L286.584 831.033L287.039 811.375C287.039 811.375 251.01 795.384 248.863 794.438C246.715 793.493 230.649 792.985 230.649 792.985L212.284 788.726L202.678 778.1L203.203 773.404L207.374 763.975C207.374 763.975 195.651 735.524 177.954 730.585C177.954 730.585 148.56 722.403 141.967 707.739L137.302 698.534L137.475 681.891L125.395 672.417L123.406 657.81L117.938 654.201L112.175 645.646L113.547 638.263L105.223 638.686L106.187 645.71L100.965 644.45L92.7826 639.768L79.8654 617.7L85.9997 607.765L82.8607 597.869L83.075 581.135L65.9649 564.878L53.812 559.241L58.5726 554.482L59.6535 525.59L56.0609 515.059L49.3647 487.58L43.2385 483.833L52.9207 453.381L48.6722 452.049L55.4258 435.764L73.8392 418.09L97.9243 418.857L102.969 417.239L110.439 423.749L120.281 443.653L129.471 457.075L145.502 464.294L152.502 468.041L149.59 441.736L141.695 411.164L130.022 391.625L120.185 373.032L119.091 326.465L132.063 304.513L127.927 284.723C127.927 284.723 143.133 278.808 152.269 244.74L168.396 237.677L182.739 239.202L198.39 231.662L199.752 225.053L219.846 217.408C219.846 217.408 259.756 209.892 240.472 159.998C240.472 159.998 278.784 132.562 278.177 97.059L298.776 78.8628L324.859 61.6579L348.088 63.4995L360.599 72.1651L385.144 73.9126L393.171 82.7299L398.184 81.7238C398.184 81.7238 399.195 108.381 443.138 106.527L480.738 111.835L500.569 100.86L527.271 99.2517L548.917 101.205L562.787 92.6898L587.012 92.6437L629.434 98.2216C629.434 98.2216 687.206 76.5638 696.595 83.0617C696.595 83.0617 725.229 93.2367 743.117 76.234L759.912 73.6828L764.808 75.5407L775.397 70.5941L795.654 66.9277C795.654 66.9277 809.299 79.5373 834.703 66.6959L849.48 68.1198C849.48 68.1198 888.301 53.3158 902.914 68.7719C902.914 68.7719 919.064 87.5046 937.754 140.452L916.704 140.575L915.157 144.535L914.964 148.806L917.035 151.103L912.084 150.905L905.527 155.241L907.514 158.355L912.536 159.838L912.744 163.678L904.597 171.271L911.936 182.534L916.989 182.469L906.156 201.496L907.068 204.116L902.153 209.016Z" fill="none" opacity="1" stroke="#000409" stroke-linecap="butt" stroke-linejoin="round" stroke-width="2" vectornator:layerName="Curve 1"/>
<path d="M805.961 366.602C805.961 366.602 807.879 374.307 778.372 376.321C778.372 376.321 767.886 376.877 761.534 388.719C755.183 400.561 750.946 399.33 749.173 399.53C747.401 399.729 723.603 388.251 717.753 392.05C711.903 395.848 702.282 414.339 709.749 423.771L717.605 430.828C717.605 430.828 717.551 438.37 735.435 437.562L745.994 440.686L747.66 450.988L751.792 461.675C751.792 461.675 759.551 459.938 763.098 463.224C766.645 466.51 766.339 468.686 766.339 468.686L772.376 470.307L774.772 476.357L787.773 481.003L791.217 486.927C791.217 486.927 793.873 485.434 798.199 488.03C802.525 490.626 818.222 493.616 817.246 481.232C817.246 481.232 812.158 476.456 829.242 469.301L844.45 455.35C844.45 455.35 845.136 457.923 844.083 451.209C843.029 444.495 841.581 436.465 841.581 436.465L839.409 432.318L841.055 428.303L840.265 424.749L841.976 420.47L841.581 411.123L842.364 399.38L834.885 399.591L837.778 393.806L835.498 389.426L837.999 385.238C837.999 385.238 834.441 370.549 827.818 368.156C821.195 365.763 817.947 364.951 813.973 365.848C809.999 366.746 805.961 366.602 805.961 366.602Z" fill="none" opacity="1" stroke="#000409" stroke-linecap="butt" stroke-linejoin="round" stroke-width="2" vectornator:layerName="Curve 2"/>
<path d="M792.178 637.736L787.882 640.374L785.47 638.867L784.265 647.232L786.036 651.98L780.346 660.345L777.859 672.705C777.859 672.705 768.623 672.219 762.267 689.891L747.169 693.608L741.2 695.483C741.2 695.483 730.476 716.508 708.734 722.488C708.734 722.488 701.245 725.452 703.819 734.507L710.09 754.022L713.948 795.277C713.948 795.277 703.996 818.292 689.899 824.024L675.206 844.7L673.328 857.551L670.309 863.984L675.056 875.012L677.108 882.984L697.083 882.577L707.628 889.814L716.436 888.935C716.436 888.935 717.273 897.322 723.201 900.103L725.867 911.779L730.941 928.226C730.941 928.226 732.907 927.628 742.564 931.454L750.029 939.077L759.705 939.219L763.178 941.264L766.397 939.187L766.809 932.383C766.809 932.383 771.79 923.642 769.4 916.433L785.587 900.967L799.557 896.736L805.155 895.749L801.436 885.201L814.81 872.256L817.824 864.816L816.689 860.722L814.077 859.987L813.235 855.206C813.235 855.206 809.76 824.204 849.62 811.18L859.686 813.168L880.861 785.641L888.618 779.388C888.618 779.388 887.193 764.983 874.766 747.411L871.927 746.374L870.231 740.547L856.179 744.43C856.179 744.43 848.116 746.092 852.669 734.125L856.184 730.955L861.77 716.004L864.586 717.37L864.385 707.303L862.118 685.588C862.118 685.588 857.16 677.01 832.855 684.648L825.905 679.872L815.738 671.629L813.225 662.407L801.878 664.992L800.719 655.924L797.262 648.789L791.792 643.148L792.178 637.736Z" fill="none" opacity="1" stroke="#000409" stroke-linecap="butt" stroke-linejoin="round" stroke-width="2" vectornator:layerName="Curve 3"/>
</g>
</svg>