<?xml version="1.0" encoding="UTF-8" standalone="no"?>
<!DOCTYPE svg PUBLIC "-//W3C//DTD SVG 1.1//EN" "http://www.w3.org/Graphics/SVG/1.1/DTD/svg11.dtd">
<!-- Created with Vectornator (http://vectornator.io/) -->
<svg height="100%" stroke-miterlimit="10" style="fill-rule:nonzero;clip-rule:evenodd;stroke-linecap:round;stroke-linejoin:round;" version="1.1" viewBox="0 0 1000 1000" width="100%" xml:space="preserve" xmlns="http://www.w3.org/2000/svg" xmlns:vectornator="http://vectornator.io" xmlns:xlink="http://www.w3.org/1999/xlink">
<g id="Layer-1" opacity="0.5" vectornator:layerName="Layer 1" visibility="hidden">
<use opacity="1" transform="matrix(0.25 0 0 0.25 0 50)" vectornator:layerName="Image 1" xlink:href="#Image"/>
</g>
<g id="Layer-5" vectornator:layerName="Layer 5">
<path d="M425.982 539.18L420.61 549.674L432.274 549.105L425.982 539.18Z" fill="#97ecff" fill-rule="nonzero" opacity="1" stroke="none" vectornator:layerName="Curve 1"/>
<path d="M392.531 487.617L387.159 498.112L398.824 497.543L392.531 487.617Z" fill="#97ecff" fill-rule="nonzero" opacity="1" stroke="none" vectornator:layerName="Curve 2"/>
<path d="M515.736 401.244L510.364 411.738L522.029 411.169L515.736 401.244Z" fill="#97ecff" fill-rule="nonzero" opacity="1" stroke="none" vectornator:layerName="Curve 8"/>
<path d="M788.186 417.533L782.814 428.028L794.479 427.459L788.186 417.533Z" fill="#97ecff" fill-rule="nonzero" opacity="1" stroke="none" vectornator:layerName="Curve 10"/>
<path d="M826.73 390.039L821.358 400.534L833.023 399.965L826.73 390.039Z" fill="#97ecff" fill-rule="nonzero" opacity="1" stroke="none" vectornator:layerName="Curve 11"/>
<path d="M770.634 333.435L765.262 343.93L776.927 343.361L770.634 333.435Z" fill="#97ecff" fill-rule="nonzero" opacity="1" stroke="none" vectornator:layerName="Curve 12"/>
<path d="M748.798 290.475L743.426 300.97L755.091 300.401L748.798 290.475Z" fill="#97ecff" fill-rule="nonzero" opacity="1" stroke="none" vectornator:layerName="Curve 13"/>
<path d="M584.563 276.876L579.19 287.371L590.855 286.802L584.563 276.876Z" fill="#97ecff" fill-rule="nonzero" opacity="1" stroke="none" vectornator:layerName="Curve 14"/>
<path d="M759.456 397.334L754.084 407.829L765.749 407.26L759.456 397.334Z" fill="#97ecff" fill-rule="nonzero" opacity="1" stroke="none" vectornator:layerName="Curve 9"/>
<path d="M473.513 603.039L468.14 613.534L479.805 612.965L473.513 603.039Z" fill="#97ecff" fill-rule="nonzero" opacity="1" stroke="none" vectornator:layerName="Curve 3"/>
<path d="M619.262 601.701L613.89 612.195L625.555 611.626L619.262 601.701Z" fill="#97ecff" fill-rule="nonzero" opacity="1" stroke="none" vectornator:layerName="Curve 4"/>
<path d="M781.406 520.916L776.034 531.411L787.699 530.842L781.406 520.916Z" fill="#97ecff" fill-rule="nonzero" opacity="1" stroke="none" vectornator:layerName="Curve 5"/>
<path d="M747.949 844.13L742.576 854.625L754.241 854.056L747.949 844.13Z" fill="#97ecff" fill-rule="nonzero" opacity="1" stroke="none" vectornator:layerName="Curve 6"/>
<path d="M783.247 861.62L777.875 872.115L789.539 871.546L783.247 861.62Z" fill="#97ecff" fill-rule="nonzero" opacity="1" stroke="none" vectornator:layerName="Curve 7"/>
</g>
</svg>